#!OML:ASF E:\pregnant2\Project 1\Capture day 1\Session 1\pregnant2.ASF
:FULLY-SPECIFIED
:DEGREES
1081
root -3.90063 3.45431 18.4396 -2.18832 -3.0386 -13.8892
lowerback -6.55733 -1.57794 -5.08819
upperback -9.0962 -1.93967 1.32034
thorax -5.63544 -0.608766 4.19748
lowerneck -8.90511 -3.20595 -6.83236
upperneck 48.3304 -4.80782 2.86721
head 21.3232 -3.00767 1.76
rclavicle -1.43125e-014 4.29375e-014
rhumerus -90.245 0.760475 -95.5291
rradius 35.5104
rwrist -2.91338
rhand -30.7166 -40.1204
rfingers 7.12502
rthumb -4.00946 -430.062
lclavicle -1.43125e-014 4.29375e-014
lhumerus -106.323 -11.6735 105.494
lradius 75.3084
lwrist 47.2663
lhand -39.9065 78.7944
lfingers 7.12502
lthumb -12.8776 251.623
rfemur -102.314 -7.54348 27.203
rtibia 38.5427
rfoot 4.06966 -10.6016
rtoes -0.129874
lfemur -98.9804 2.08491 -5.53802
ltibia 35.1161
lfoot -8.01939 39.4634
ltoes 33.8706
1082
root -3.91085 3.45757 18.4466 -2.09013 -2.9456 -13.7912
lowerback -6.51355 -1.5871 -5.11917
upperback -9.11051 -1.95468 1.29429
thorax -5.67422 -0.61374 4.1887
lowerneck -8.91067 -3.20946 -6.86404
upperneck 48.2685 -4.79156 2.85429
head 21.2753 -3.00627 1.76152
rclavicle 4.77083e-015 -3.02153e-014
rhumerus -90.3422 0.838834 -95.7581
rradius 35.6375
rwrist -3.15062
rhand -30.3701 -39.55
rfingers 7.12502
rthumb -3.67486 -429.498
lclavicle 4.77083e-015 -3.02153e-014
lhumerus -106.204 -11.7245 105.39
lradius 75.0289
lwrist 47.1894
lhand -39.9425 78.8154
lfingers 7.12502
lthumb -12.9124 251.604
rfemur -102.085 -7.55224 26.7702
rtibia 37.95
rfoot 3.90687 -11.0283
rtoes -0.256452
lfemur -99.0957 2.07748 -5.84111
ltibia 35.0957
lfoot -7.65099 39.3316
ltoes 33.6777
1083
root -3.92143 3.46074 18.4532 -1.996 -2.858 -13.7128
lowerback -6.45869 -1.59001 -5.12495
upperback -9.12205 -1.96239 1.27224
thorax -5.71728 -0.616406 4.1704
lowerneck -8.91882 -3.21475 -6.89038
upperneck 48.2029 -4.77684 2.83623
head 21.2251 -3.00487 1.75899
rclavicle -7.15625e-015 3.81667e-014
rhumerus -90.421 0.895771 -95.9681
rradius 35.7249
rwrist -3.32693
rhand -30.0436 -39.0292
rfingers 7.12502
rthumb -3.35956 -428.982
lclavicle -7.15625e-015 3.81667e-014
lhumerus -106.071 -11.7878 105.283
lradius 74.7475
lwrist 47.1096
lhand -39.9119 78.8059
lfingers 7.12502
lthumb -12.8828 251.612
rfemur -101.841 -7.54811 26.2868
rtibia 37.3663
rfoot 3.74579 -11.5173
rtoes -0.360084
lfemur -99.205 2.07918 -6.13647
ltibia 35.0685
lfoot -7.2632 39.1812
ltoes 33.4713
1084
root -3.93218 3.46381 18.4592 -1.90926 -2.77473 -13.648
lowerback -6.39858 -1.58678 -5.1093
upperback -9.12747 -1.96253 1.25133
thorax -5.75779 -0.616788 4.14144
lowerneck -8.92884 -3.22262 -6.91239
upperneck 48.1323 -4.76618 2.81591
head 21.1718 -3.00425 1.75365
rclavicle 4.77083e-015 -3.81667e-014
rhumerus -90.4801 0.9298 -96.1542
rradius 35.7768
rwrist -3.44526
rhand -29.7179 -38.5476
rfingers 7.12502
rthumb -3.04504 -428.506
lclavicle 4.77083e-015 -3.81667e-014
lhumerus -105.924 -11.8647 105.169
lradius 74.4661
lwrist 47.0295
lhand -39.8295 78.7724
lfingers 7.12502
lthumb -12.8034 251.64
rfemur -101.58 -7.53294 25.7475
rtibia 36.7927
rfoot 3.57211 -12.0703
rtoes -0.378779
lfemur -99.3023 2.08541 -6.4238
ltibia 35.0313
lfoot -6.87034 39.0199
ltoes 33.2667
1085
root -3.94306 3.46685 18.4642 -1.83074 -2.69585 -13.5932
lowerback -6.3366 -1.57826 -5.0758
upperback -9.12459 -1.95592 1.2299
thorax -5.79136 -0.615331 4.10191
lowerneck -8.94628 -3.23277 -6.92368
upperneck 48.0585 -4.7593 2.79036
head 21.118 -3.00347 1.74275
rclavicle -2.54444e-014 4.77083e-014
rhumerus -90.5202 0.942193 -96.3179
rradius 35.7989
rwrist -3.50935
rhand -29.4007 -38.0901
rfingers 7.12502
rthumb -2.73868 -428.052
lclavicle -2.54444e-014 4.77083e-014
lhumerus -105.761 -11.9521 105.047
lradius 74.1796
lwrist 46.9556
lhand -39.7548 78.7528
lfingers 7.12502
lthumb -12.7314 251.655
rfemur -101.302 -7.50664 25.1571
rtibia 36.2324
rfoot 3.37015 -12.6814
rtoes -0.376523
lfemur -99.3851 2.09422 -6.69715
ltibia 34.9829
lfoot -6.47804 38.8594
ltoes 33.0687
1086
root -3.9537 3.46986 18.468 -1.75752 -2.61564 -13.5268
lowerback -6.27946 -1.56901 -5.0457
upperback -9.11667 -1.94799 1.20504
thorax -5.81692 -0.613483 4.06046
lowerneck -8.96236 -3.24364 -6.93235
upperneck 47.9816 -4.75391 2.76368
head 21.0616 -3.00282 1.73054
rclavicle -2.06736e-014 1.43125e-014
rhumerus -90.5508 0.941033 -96.465
rradius 35.7912
rwrist -3.53571
rhand -29.1888 -37.6154
rfingers 7.12502
rthumb -2.53408 -427.58
lclavicle -2.06736e-014 1.43125e-014
lhumerus -105.588 -12.0391 104.917
lradius 73.8864
lwrist 46.8838
lhand -39.6868 78.7661
lfingers 7.12502
lthumb -12.6658 251.638
rfemur -101.021 -7.47914 24.514
rtibia 35.6882
rfoot 3.14749 -13.3333
rtoes -0.395596
lfemur -99.455 2.09452 -6.96436
ltibia 34.9232
lfoot -6.10378 38.7144
ltoes 32.892
1087
root -3.96407 3.47288 18.4713 -1.68515 -2.53896 -13.4467
lowerback -6.2282 -1.55383 -5.01747
upperback -9.10517 -1.93203 1.17091
thorax -5.83638 -0.608129 4.01018
lowerneck -8.97618 -3.25759 -6.93396
upperneck 47.9025 -4.75681 2.73903
head 21.0034 -3.00375 1.71657
rclavicle 2.38542e-015 -2.8625e-014
rhumerus -90.5738 0.914165 -96.5854
rradius 35.7702
rwrist -3.53958
rhand -29.0539 -37.1267
rfingers 7.12502
rthumb -2.4038 -427.093
lclavicle 2.38542e-015 -2.8625e-014
lhumerus -105.411 -12.1384 104.785
lradius 73.5889
lwrist 46.8118
lhand -39.6335 78.8096
lfingers 7.12502
lthumb -12.6144 251.591
rfemur -100.742 -7.44479 23.8138
rtibia 35.1646
rfoot 2.89842 -14.0333
rtoes -0.435271
lfemur -99.516 2.09202 -7.22923
ltibia 34.8532
lfoot -5.73126 38.5867
ltoes 32.7262
1088
root -3.97429 3.47586 18.4744 -1.61267 -2.46454 -13.3482
lowerback -6.18549 -1.53482 -4.99813
upperback -9.09058 -1.91062 1.12757
thorax -5.84836 -0.600127 3.95499
lowerneck -8.98617 -3.27473 -6.92948
upperneck 47.8219 -4.76785 2.71569
head 20.9437 -3.00657 1.7007
rclavicle -1.19271e-014 7.95139e-015
rhumerus -90.5921 0.867255 -96.6967
rradius 35.7236
rwrist -3.51129
rhand -29.0378 -36.5679
rfingers 7.12502
rthumb -2.38821 -426.534
lclavicle -1.19271e-014 7.95139e-015
lhumerus -105.229 -12.2464 104.647
lradius 73.2816
lwrist 46.7312
lhand -39.5956 78.848
lfingers 7.12502
lthumb -12.5779 251.551
rfemur -100.467 -7.40373 23.0314
rtibia 34.6641
rfoot 2.62827 -14.8002
rtoes -0.456795
lfemur -99.5692 2.08499 -7.48951
ltibia 34.7733
lfoot -5.37077 38.4813
ltoes 32.5877
1089
root -3.98471 3.47877 18.4774 -1.5327 -2.38782 -13.2405
lowerback -6.14528 -1.51814 -4.98584
upperback -9.07883 -1.89214 1.08365
thorax -5.86159 -0.593079 3.90308
lowerneck -8.99157 -3.29133 -6.92621
upperneck 47.7421 -4.78007 2.69617
head 20.8839 -3.00973 1.68696
rclavicle 1.66979e-014 1.90833e-014
rhumerus -90.6115 0.814817 -96.7961
rradius 35.6677
rwrist -3.4671
rhand -29.0156 -35.9984
rfingers 7.12502
rthumb -2.36674 -425.965
lclavicle 1.66979e-014 1.90833e-014
lhumerus -105.036 -12.3454 104.494
lradius 72.9584
lwrist 46.631
lhand -39.5532 78.8496
lfingers 7.12502
lthumb -12.5371 251.546
rfemur -100.197 -7.35333 22.1485
rtibia 34.1894
rfoot 2.32408 -15.6642
rtoes -0.412705
lfemur -99.6239 2.07393 -7.74258
ltibia 34.6821
lfoot -5.00193 38.3918
ltoes 32.4589
1090
root -3.99515 3.48167 18.4803 -1.44621 -2.31075 -13.1212
lowerback -6.11035 -1.50369 -4.98013
upperback -9.0683 -1.8763 1.03829
thorax -5.87281 -0.587036 3.85317
lowerneck -8.99255 -3.308 -6.92216
upperneck 47.6617 -4.79337 2.67669
head 20.8225 -3.01329 1.67298
rclavicle 2.78299e-014 -1.90833e-014
rhumerus -90.6307 0.761071 -96.8893
rradius 35.6052
rwrist -3.41114
rhand -29.0018 -35.4147
rfingers 7.12502
rthumb -2.35349 -425.381
lclavicle 2.78299e-014 -1.90833e-014
lhumerus -104.828 -12.4337 104.32
lradius 72.6139
lwrist 46.5141
lhand -39.5169 78.8367
lfingers 7.12502
lthumb -12.502 251.557
rfemur -99.9311 -7.29202 21.1634
rtibia 33.7396
rfoot 1.96386 -16.6355
rtoes -0.160283
lfemur -99.6752 2.05663 -7.97113
ltibia 34.578
lfoot -4.65966 38.3289
ltoes 32.3557
